<svg width="46" height="46" viewBox="0 0 46 46" fill="none" xmlns="http://www.w3.org/2000/svg">
<path d="M3.29297 17.5445C3.29297 12.5996 3.29297 10.1271 4.25531 8.23841C5.10182 6.57705 6.45254 5.22633 8.1139 4.37983C10.0026 3.41748 12.4751 3.41748 17.42 3.41748H28.2011C33.146 3.41748 35.6185 3.41748 37.5072 4.37983C39.1686 5.22633 40.5193 6.57705 41.3658 8.23841C42.3281 10.1271 42.3281 12.5996 42.3281 17.5445V28.3256C42.3281 33.2706 42.3281 35.743 41.3658 37.6317C40.5193 39.2931 39.1686 40.6438 37.5072 41.4903C35.6185 42.4527 33.146 42.4527 28.2011 42.4527H17.42C12.4751 42.4527 10.0026 42.4527 8.1139 41.4903C6.45254 40.6438 5.10182 39.2931 4.25531 37.6317C3.29297 35.743 3.29297 33.2706 3.29297 28.3256V17.5445Z" fill="#001E36"/>
<path d="M11.6582 32.0194V14.8539C11.6582 14.7371 11.707 14.6704 11.8208 14.6704C13.5016 14.6704 15.1817 14.5703 16.8629 14.5703C19.5909 14.5703 22.5448 15.5031 23.5802 18.3571C23.8242 19.0577 23.9543 19.775 23.9543 20.5257C23.9543 21.9603 23.629 23.1447 22.9784 24.0789C21.1611 26.6884 18.0112 26.6479 15.1876 26.6479V32.0027C15.2097 32.1612 15.0746 32.2362 14.9437 32.2362H11.8534C11.7233 32.2362 11.6582 32.1695 11.6582 32.0194ZM15.2039 17.89V23.495C16.3234 23.577 17.495 23.5859 18.5707 23.2281C19.7582 22.8856 20.4086 21.8576 20.4086 20.6258C20.4416 19.5761 19.8696 18.569 18.896 18.1902C17.8332 17.7484 16.3511 17.7219 15.2039 17.89Z" fill="#31A8FF"/>
<path d="M34.0988 22.3876C33.6066 22.1283 33.0825 21.9385 32.5407 21.8236C31.8444 21.6598 29.0983 21.086 29.0972 22.5219C29.1216 23.3236 30.3941 23.7163 30.9564 23.9454C32.9302 24.623 35.1639 25.8344 35.12 28.2694C35.1804 31.3008 32.2433 32.5126 29.7257 32.5129C28.415 32.5265 27.0496 32.3235 25.8501 31.7609C25.7356 31.7003 25.6619 31.5707 25.6668 31.4386V28.538C25.6539 28.4217 25.7787 28.3201 25.8763 28.4037C27.0516 29.1145 28.4446 29.4595 29.8042 29.478C30.4044 29.478 31.5939 29.4198 31.5849 28.538C31.5849 27.6917 30.1619 27.3027 29.5947 27.0877C28.7725 26.7941 27.9929 26.3876 27.2772 25.8791C26.2771 25.1657 25.6497 24.022 25.6668 22.7636C25.661 19.9093 28.3645 18.6282 30.7993 18.6276C31.9376 18.6182 33.1598 18.7025 34.2194 19.1647C34.3718 19.2096 34.4033 19.37 34.4027 19.5139V22.2265C34.4124 22.3949 34.2254 22.4522 34.0988 22.3876Z" fill="#31A8FF"/>
</svg>
