<svg width="140" height="17" viewBox="0 0 140 17" fill="none" xmlns="http://www.w3.org/2000/svg">
<path d="M11.2393 10.6073L19.6718 16.7866H14.2392L7.85624 12.1412H4.31964V16.7866H0.741028V0.682861H4.31964V8.56261H8.69189L14.7161 2.87141H19.6718L11.2393 10.6073Z" fill="white"/>
<path d="M27.6469 4.67883C25.2014 4.67883 22.8577 5.11363 20.4719 5.88949L21.6826 8.37706C24.0926 7.66101 25.9595 7.51877 27.4918 7.51877C29.0241 7.51877 31.9416 7.70304 31.9416 9.9223C30.4141 9.41476 28.565 9.09311 26.5559 9.09311C22.8399 9.09311 19.5005 10.0468 19.5005 13.0887C19.5005 15.7315 21.5468 16.787 24.8264 16.787C27.5936 16.787 29.8791 16.1485 31.9416 15.1351V16.787H35.365V10.6852C35.323 6.24832 32.538 4.67883 27.6469 4.67883ZM32.2164 13.4104C32.2164 13.7741 31.9125 14.0731 31.5537 14.0731H22.9045C22.5473 14.0731 22.2418 13.7741 22.2418 13.4104V12.3792C22.2418 12.009 22.5457 11.7116 22.9045 11.7116H31.5537C31.9109 11.7116 32.2164 12.0106 32.2164 12.3792V13.4104Z" fill="white"/>
<path d="M44.8192 9.33718C40.7815 9.03331 40.1673 8.9137 40.1673 8.17987C40.1673 7.49938 41.0854 7.26178 44.3068 7.26178C47.5282 7.26178 48.6968 7.501 48.6968 8.4789H52.1138C52.1138 5.25749 48.9166 4.6853 44.4975 4.6853C40.3289 4.6853 36.7438 5.25749 36.7438 8.31726C36.7438 11.1443 39.2783 11.5387 44.4199 11.8425C48.5352 12.0931 49.096 12.1529 49.096 13.0532C49.096 13.9535 48.4996 14.204 44.8192 14.204C41.1387 14.204 39.726 13.7272 39.726 12.4745H36.3317C36.3317 16.2148 40.5067 16.787 45.0164 16.787C49.526 16.787 52.513 16.2148 52.513 12.9158C52.513 9.78976 49.3935 9.67177 44.8192 9.33718Z" fill="white"/>
<path d="M64.0183 4.8824C61.167 4.8824 58.8653 5.81828 57.194 7.12429V0.683105H53.7948V16.7869H57.194V10.2261C58.243 8.99765 60.7193 7.82256 62.9967 7.82256C65.7995 7.82256 66.6351 9.1108 66.6351 11.5984V16.7869H70.0651L70.0942 10.3037C70.0586 5.99123 67.1362 4.8824 64.0166 4.8824H64.0183Z" fill="white"/>
<path d="M97.6708 4.67908C95.2253 4.67908 92.8816 5.11388 90.4893 5.88973L91.7113 8.3773C94.1148 7.66126 95.9817 7.51902 97.5092 7.51902C99.0366 7.51902 101.964 7.70328 101.964 9.92254C100.432 9.41501 98.5873 9.09335 96.5782 9.09335C92.8557 9.09335 89.5228 10.047 89.5228 13.089C89.5228 15.7317 91.5691 16.7872 94.8487 16.7872C97.6094 16.7872 99.8949 16.1488 101.964 15.1353V16.7872H105.381V10.6855C105.345 6.24856 102.565 4.67908 97.6692 4.67908H97.6708ZM102.234 13.4106C102.234 13.7743 101.941 14.0734 101.571 14.0734H92.9284C92.5648 14.0734 92.2657 13.7743 92.2657 13.4106V12.3794C92.2657 12.0093 92.5648 11.7119 92.9284 11.7119H101.571C101.941 11.7119 102.234 12.0109 102.234 12.3794V13.4106Z" fill="white"/>
<path d="M77.4631 13.7869V0.683105H73.8845V16.7869H88.1989V13.7869H77.4631Z" fill="white"/>
<path d="M120.067 12.1643C120.067 12.6412 119.679 13.0226 119.214 13.0226H110.959C110.482 13.0226 110.101 12.6412 110.101 12.1643V9.95155C110.101 9.61211 110.298 9.31309 110.577 9.1757C110.691 9.12236 110.822 9.09165 110.959 9.09165H119.231C119.691 9.10296 120.067 9.47957 120.067 9.94993V12.1627V12.1643ZM110.232 16.7871V14.7586C111.502 16.0889 113.548 16.7871 116.065 16.7871C119.828 16.7871 123.049 15.2128 123.049 10.7452C123.049 6.27757 119.828 4.67899 116.065 4.67899C113.548 4.67899 111.502 5.37725 110.232 6.70752V0.68335H106.826V16.7871H110.232Z" fill="white"/>
<path d="M132.306 9.33743C128.269 9.03355 127.654 8.91394 127.654 8.18011C127.654 7.49963 128.568 7.26202 131.794 7.26202C135.02 7.26202 136.184 7.50124 136.184 8.47914H139.601C139.601 5.25774 136.397 4.68555 131.985 4.68555C127.816 4.68555 124.231 5.25774 124.231 8.3175C124.231 11.1445 126.76 11.5389 131.907 11.8428C136.022 12.0933 136.583 12.1531 136.583 13.0534C136.583 13.9537 135.987 14.2043 132.306 14.2043C128.626 14.2043 127.213 13.7275 127.213 12.4748H123.814C123.814 16.215 127.989 16.7872 132.503 16.7872C137.018 16.7872 140 16.215 140 12.916C140 9.79001 136.874 9.67201 132.306 9.33743Z" fill="white"/>
</svg>
