<svg width="89" height="16" viewBox="0 0 89 16" fill="none" xmlns="http://www.w3.org/2000/svg">
<path d="M10.5103 5.42057H7.08284L3.40803 8.84803V0.350035H0.793255V15.6146H3.40803V12.0635L4.68007 10.8268L8.0192 15.6146H11.164L6.44681 9.13071L10.5103 5.42057Z" fill="white"/>
<path d="M20.2097 6.63961C19.821 6.05659 19.2733 5.57957 18.5843 5.26156C17.8953 4.92588 17.0826 4.74921 16.1639 4.74921C15.2452 4.74921 14.4855 4.92588 13.7964 5.26156C13.0897 5.57957 12.542 6.03892 12.1534 6.60428C11.747 7.1873 11.5173 7.82333 11.4643 8.53002H13.8141C13.8318 8.21201 13.9201 7.91166 14.1144 7.62898C14.3088 7.34631 14.5738 7.1343 14.8918 6.95762C15.2098 6.79862 15.5985 6.71028 16.0579 6.71028C16.7292 6.71028 17.2592 6.86929 17.6479 7.20497C18.0366 7.54065 18.2133 7.96466 18.2133 8.49468C18.2133 8.70669 18.1603 8.88337 18.0189 8.98937C17.8776 9.11304 17.6656 9.16604 17.3652 9.16604H15.5455C14.7328 9.16604 14.0084 9.30738 13.3901 9.57239C12.7894 9.85507 12.3124 10.2438 11.9767 10.7738C11.641 11.2861 11.482 11.8868 11.482 12.5582C11.482 13.1765 11.6233 13.7419 11.9237 14.2189C12.224 14.7136 12.6481 15.0846 13.1781 15.3673C13.7258 15.65 14.3441 15.7736 15.0331 15.7736C15.5102 15.7736 15.9518 15.7206 16.3582 15.597C16.7645 15.4556 17.1179 15.2789 17.4182 15.0316C17.7362 14.8019 17.9659 14.5193 18.1426 14.2189L18.2133 14.0246V15.6146H20.8104V8.72436C20.8104 7.92933 20.616 7.2403 20.2097 6.63961ZM18.2133 11.0918C18.2133 11.9222 17.9836 12.5758 17.5242 13.0882C17.0649 13.6006 16.4465 13.8479 15.6338 13.8479C15.1392 13.8479 14.7328 13.7242 14.4325 13.4769C14.1321 13.2295 13.9731 12.8939 13.9731 12.4698C13.9731 11.9928 14.1498 11.6218 14.5031 11.3568C14.8388 11.0918 15.3158 10.9681 15.8812 10.9681H18.2133V11.0918Z" fill="white"/>
<path d="M29.326 9.59006C28.8313 9.43105 28.1953 9.28972 27.4356 9.16604C26.9056 9.09538 26.4816 9.02471 26.1989 8.95404C25.9162 8.88337 25.6689 8.7597 25.4745 8.60069C25.2802 8.42402 25.1919 8.19434 25.1919 7.894C25.1919 7.50531 25.3509 7.1873 25.6512 6.97529C25.9516 6.76328 26.3402 6.65728 26.8349 6.65728C27.365 6.65728 27.789 6.79862 28.1423 7.06363C28.4957 7.34631 28.7077 7.69965 28.7607 8.15901H31.0574C31.0221 7.46998 30.8101 6.86929 30.4567 6.33927C30.1034 5.82691 29.6087 5.42057 28.9904 5.15555C28.3543 4.87288 27.63 4.74921 26.7819 4.74921C26.0399 4.74921 25.3862 4.89054 24.8032 5.15555C24.2202 5.43823 23.7608 5.80925 23.4428 6.30393C23.1071 6.79862 22.9481 7.36397 22.9481 7.98233C22.9481 8.7597 23.1248 9.36038 23.4781 9.80207C23.8315 10.2261 24.2555 10.5264 24.7325 10.6854C25.2272 10.8444 25.8456 10.9858 26.6053 11.1271C27.1353 11.2331 27.5416 11.3215 27.8243 11.4098C28.107 11.4981 28.3367 11.6218 28.531 11.7985C28.7253 11.9752 28.8313 12.2048 28.8313 12.5228C28.8313 12.9115 28.6723 13.2119 28.3367 13.4415C28.001 13.6712 27.577 13.7772 27.0469 13.7772C26.4463 13.7772 25.9516 13.6182 25.5806 13.3179C25.2095 13.0175 24.9975 12.5935 24.9269 12.0812H22.6301C22.6831 12.8585 22.8951 13.5299 23.2485 14.0776C23.6018 14.6253 24.1142 15.0493 24.7502 15.3496C25.3862 15.65 26.1459 15.7913 27.0293 15.7913C27.9126 15.7913 28.584 15.65 29.22 15.385C29.8384 15.1023 30.3154 14.7136 30.6511 14.1836C30.9868 13.6536 31.1458 13.0352 31.1458 12.3108C31.1458 11.5158 30.9691 10.9151 30.6157 10.4734C30.2624 10.0494 29.8384 9.74907 29.326 9.59006Z" fill="white"/>
<path d="M41.1985 5.27923C40.5978 4.92588 39.8911 4.74921 39.1137 4.74921C38.3364 4.74921 37.6827 4.90821 37.082 5.22622C36.4813 5.54424 36.0573 5.98592 35.7746 6.56894V0.332367H33.1599V15.597H35.7746V9.76673C35.7746 9.23671 35.8806 8.77736 36.0926 8.37101C36.3046 7.96466 36.605 7.64665 36.976 7.39931C37.347 7.16963 37.771 7.04596 38.2304 7.04596C38.9017 7.04596 39.4318 7.27564 39.8558 7.73499C40.2798 8.19434 40.4741 8.79503 40.4741 9.51939V15.5793H43.0536V8.9717C43.0536 8.14134 42.8946 7.39931 42.5589 6.76329C42.2409 6.12726 41.7639 5.61491 41.1632 5.26156L41.1985 5.27923Z" fill="white"/>
<path d="M48.4598 0.350035H45.6507V15.6146H55.3854V13.1942H48.4598V0.350035Z" fill="white"/>
<path d="M65.1378 6.63961C64.7491 6.05659 64.2014 5.57957 63.5124 5.26156C62.8057 4.92588 62.0106 4.74921 61.0919 4.74921C60.1732 4.74921 59.4135 4.92588 58.7068 5.26156C58.0178 5.57957 57.4701 6.03892 57.0638 6.60428C56.6751 7.1873 56.4454 7.82333 56.3748 8.53002H58.7422C58.7422 8.21201 58.8482 7.91166 59.0425 7.62898C59.2369 7.34631 59.4842 7.1343 59.8199 6.95762C60.1379 6.79862 60.5266 6.71028 60.9859 6.71028C61.6573 6.71028 62.1873 6.86929 62.576 7.20497C62.947 7.54065 63.1413 7.96466 63.1413 8.49468C63.1413 8.70669 63.0707 8.88337 62.947 8.98937C62.8057 9.11304 62.5937 9.16604 62.2933 9.16604H60.4736C59.6609 9.16604 58.9365 9.30738 58.3182 9.57239C57.6998 9.85507 57.2405 10.2438 56.9048 10.7738C56.5691 11.2861 56.4101 11.8868 56.4101 12.5582C56.4101 13.1765 56.5514 13.7419 56.8518 14.2189C57.1521 14.7136 57.5585 15.0846 58.1062 15.3673C58.6538 15.65 59.2722 15.7736 59.9612 15.7736C60.4382 15.7736 60.8623 15.7206 61.2863 15.597C61.6926 15.4556 62.046 15.2789 62.3463 15.0316C62.6467 14.8019 62.894 14.5193 63.053 14.2189L63.1413 14.0246V15.6146H65.7385V8.72436C65.7385 7.92933 65.5264 7.2403 65.1378 6.63961ZM63.1413 11.0918C63.1413 11.9222 62.9117 12.5758 62.4523 13.0882C61.993 13.6006 61.3569 13.8479 60.5619 13.8479C60.0672 13.8479 59.6609 13.7242 59.3605 13.4769C59.0602 13.2295 58.9012 12.8939 58.9012 12.4698C58.9012 11.9928 59.0779 11.6218 59.4312 11.3568C59.7669 11.0918 60.2262 10.9681 60.8093 10.9681H63.1413V11.0918Z" fill="white"/>
<path d="M78.406 7.39931C78.0173 6.56894 77.4342 5.91525 76.6922 5.4559C75.9502 4.99655 75.0668 4.74921 74.0421 4.74921C73.3708 4.74921 72.7524 4.89055 72.187 5.15556C71.6217 5.42057 71.1623 5.77391 70.8443 6.2156V0.350035H68.2296V15.6146H70.8443V14.2719C71.1447 14.7313 71.604 15.0846 72.187 15.3673C72.7701 15.65 73.4061 15.7736 74.0774 15.7736C75.0845 15.7736 75.9679 15.544 76.7099 15.0846C77.4519 14.6076 78.0173 13.9716 78.406 13.1235C78.8123 12.2932 79.0066 11.3391 79.0066 10.2614C79.0066 9.18371 78.8123 8.24734 78.406 7.39931ZM76.0562 11.9928C75.8088 12.4875 75.4732 12.8585 75.0492 13.1235C74.6251 13.4062 74.1128 13.5299 73.5298 13.5299C72.6641 13.5299 71.975 13.2295 71.4627 12.6465C70.9327 12.0458 70.6676 11.2508 70.6676 10.2614C70.6676 9.6254 70.7913 9.04237 71.0387 8.54769C71.2683 8.053 71.604 7.68199 72.0457 7.39931C72.4697 7.1343 72.9821 7.01063 73.5474 7.01063C74.4131 7.01063 75.1022 7.29331 75.6322 7.894C76.1622 8.49469 76.4095 9.27205 76.4095 10.2614C76.4095 10.9151 76.3035 11.4981 76.0562 11.9928Z" fill="white"/>
<path d="M88.335 10.4734C87.9816 10.0494 87.5576 9.74907 87.0453 9.59006C86.5506 9.43105 85.9146 9.28972 85.1549 9.16604C84.6249 9.09538 84.2008 9.02471 83.9181 8.95404C83.6355 8.88337 83.3881 8.7597 83.1938 8.60069C82.9995 8.42402 82.9111 8.19434 82.9111 7.894C82.9111 7.50531 83.0701 7.1873 83.3705 6.97529C83.6708 6.76328 84.0595 6.65728 84.5542 6.65728C85.0842 6.65728 85.5082 6.79862 85.8616 7.06363C86.2149 7.34631 86.4269 7.69965 86.4799 8.15901H88.7767C88.7413 7.46998 88.5293 6.86929 88.176 6.33927C87.8226 5.82691 87.328 5.42057 86.7096 5.15555C86.0736 4.87288 85.3492 4.74921 84.5012 4.74921C83.7591 4.74921 83.1055 4.89054 82.5224 5.15555C81.9394 5.43823 81.4801 5.80925 81.162 6.30393C80.8264 6.79862 80.6674 7.36397 80.6674 7.98233C80.6674 8.7597 80.844 9.36038 81.1974 9.80207C81.5507 10.2261 81.9748 10.5264 82.4518 10.6854C82.9465 10.8444 83.5648 10.9858 84.3245 11.1271C84.8545 11.2331 85.2609 11.3215 85.5436 11.4098C85.8262 11.4981 86.0559 11.6218 86.2502 11.7985C86.4446 11.9752 86.5506 12.2048 86.5506 12.5228C86.5506 12.9115 86.3916 13.2119 86.0559 13.4415C85.7202 13.6712 85.2962 13.7772 84.7662 13.7772C84.1655 13.7772 83.6708 13.6182 83.2998 13.3179C82.9288 13.0175 82.7168 12.5935 82.6461 12.0812H80.3493C80.4024 12.8585 80.6144 13.5299 80.9677 14.0776C81.3211 14.6253 81.8334 15.0493 82.4694 15.3496C83.1055 15.65 83.8651 15.7913 84.7485 15.7913C85.6319 15.7913 86.3033 15.65 86.9393 15.385C87.5576 15.1023 88.0347 14.7136 88.3703 14.1836C88.706 13.6536 88.865 13.0352 88.865 12.3108C88.865 11.5158 88.6883 10.9151 88.335 10.4734Z" fill="white"/>
</svg>
