<svg width="46" height="46" viewBox="0 0 46 46" fill="none" xmlns="http://www.w3.org/2000/svg">
<path fill-rule="evenodd" clip-rule="evenodd" d="M22.8945 22.9353C22.8945 19.8555 25.3912 17.3589 28.471 17.3589C31.5508 17.3589 34.0474 19.8555 34.0474 22.9353C34.0474 26.0151 31.5508 28.5118 28.471 28.5118C25.3912 28.5118 22.8945 26.0151 22.8945 22.9353Z" fill="#1ABCFE"/>
<path fill-rule="evenodd" clip-rule="evenodd" d="M11.7412 34.0882C11.7412 31.0084 14.2379 28.5117 17.3177 28.5117H22.8941V34.0882C22.8941 37.168 20.3975 39.6646 17.3177 39.6646C14.2379 39.6646 11.7412 37.168 11.7412 34.0882Z" fill="#0ACF83"/>
<path fill-rule="evenodd" clip-rule="evenodd" d="M22.8945 6.20605V17.359H28.471C31.5508 17.359 34.0474 14.8623 34.0474 11.7825C34.0474 8.70272 31.5508 6.20605 28.471 6.20605H22.8945Z" fill="#FF7262"/>
<path fill-rule="evenodd" clip-rule="evenodd" d="M11.7412 11.7825C11.7412 14.8623 14.2379 17.359 17.3177 17.359H22.8941V6.20605H17.3177C14.2379 6.20605 11.7412 8.70272 11.7412 11.7825Z" fill="#F24E1E"/>
<path fill-rule="evenodd" clip-rule="evenodd" d="M11.7412 22.9353C11.7412 26.0151 14.2379 28.5118 17.3177 28.5118H22.8941V17.3589H17.3177C14.2379 17.3589 11.7412 19.8555 11.7412 22.9353Z" fill="#C0ADD9"/>
</svg>
