<svg width="46" height="46" viewBox="0 0 46 46" fill="none" xmlns="http://www.w3.org/2000/svg">
<path d="M3.21094 17.5445C3.21094 12.5996 3.21094 10.1271 4.17328 8.23841C5.01979 6.57705 6.37051 5.22633 8.03187 4.37983C9.92057 3.41748 12.393 3.41748 17.338 3.41748H28.1191C33.064 3.41748 35.5365 3.41748 37.4252 4.37983C39.0865 5.22633 40.4373 6.57705 41.2838 8.23841C42.2461 10.1271 42.2461 12.5996 42.2461 17.5445V28.3256C42.2461 33.2706 42.2461 35.743 41.2838 37.6317C40.4373 39.2931 39.0865 40.6438 37.4252 41.4903C35.5365 42.4527 33.064 42.4527 28.1191 42.4527H17.338C12.393 42.4527 9.92057 42.4527 8.03187 41.4903C6.37051 40.6438 5.01979 39.2931 4.17328 37.6317C3.21094 35.743 3.21094 33.2706 3.21094 28.3256V17.5445Z" fill="#330000"/>
<path d="M22.1268 27.9487H16.0778L14.8471 31.8699C14.8129 32.0156 14.6788 32.1187 14.5328 32.1116H11.4691C11.2944 32.1116 11.2333 32.0131 11.2858 31.8162L16.523 16.3462C16.5754 16.1851 16.6278 16.0016 16.6801 15.7956C16.7486 15.4373 16.7837 15.0731 16.7849 14.7079C16.7699 14.6001 16.8647 14.5048 16.9682 14.5199H21.1317C21.2537 14.5199 21.3235 14.5647 21.3412 14.6542L27.2855 31.843C27.3379 32.0222 27.2855 32.1117 27.1284 32.1116H23.7241C23.6047 32.1252 23.4907 32.0433 23.4623 31.9236L22.1268 27.9487ZM17.0205 24.5646H21.1579C20.4782 22.2418 19.711 19.9495 19.0893 17.6085C18.4184 19.9534 17.6865 22.2889 17.0205 24.5646Z" fill="#FF9A00"/>
<path d="M30.8203 17.3667C30.5532 17.3777 30.2869 17.3308 30.0387 17.229C29.7905 17.1271 29.5661 16.9727 29.3801 16.7759C29.1946 16.5704 29.0505 16.3294 28.9561 16.0667C28.8617 15.804 28.8189 15.5247 28.8301 15.245C28.8206 14.968 28.8681 14.6921 28.9697 14.4352C29.0712 14.1784 29.2244 13.9464 29.4193 13.7544C29.6123 13.5644 29.8401 13.4155 30.0896 13.3164C30.339 13.2173 30.6052 13.1699 30.8726 13.177C31.5011 13.177 31.9943 13.3694 32.3522 13.7544C32.5328 13.9544 32.6732 14.1891 32.7653 14.4448C32.8574 14.7006 32.8994 14.9725 32.889 15.245C32.8999 15.5258 32.8557 15.8061 32.759 16.069C32.6623 16.332 32.515 16.5724 32.326 16.7759C32.1284 16.9756 31.8926 17.1313 31.6334 17.233C31.3743 17.3347 31.0974 17.3802 30.8203 17.3667ZM29.0134 31.8429V19.005C29.0134 18.8439 29.083 18.7633 29.2229 18.7633H32.4438C32.5834 18.7633 32.6532 18.8439 32.6533 19.005V31.8429C32.6533 32.0221 32.5835 32.1116 32.4438 32.1115H29.2491C29.092 32.1115 29.0134 32.022 29.0134 31.8429Z" fill="#FF9A00"/>
</svg>
